<?xml version="1.0" standalone="yes"?>

<svg version="1.1" viewBox="0.0 0.0 960.0 720.0" fill="none" stroke="none" stroke-linecap="square" stroke-miterlimit="10" xmlns="http://www.w3.org/2000/svg" xmlns:xlink="http://www.w3.org/1999/xlink"><clipPath id="p.0"><path d="m0 0l960.0 0l0 720.0l-960.0 0l0 -720.0z" clip-rule="nonzero"></path></clipPath><g clip-path="url(#p.0)"><path fill="#000000" fill-opacity="0.0" d="m0 0l960.0 0l0 720.0l-960.0 0z" fill-rule="nonzero"></path><path fill="#000000" fill-opacity="0.0" d="m14.677165 647.55383l930.6456 0" fill-rule="nonzero"></path><path stroke="#000000" stroke-width="4.0" stroke-linejoin="round" stroke-linecap="butt" d="m14.677165 647.55383l930.6456 0" fill-rule="nonzero"></path><path fill="#000000" fill-opacity="0.0" d="m3.6692915 647.55383l70.803154 0l0 36.283447l-70.803154 0z" fill-rule="nonzero"></path><path fill="#000000" d="m14.4036665 667.00696q0 -0.515625 0.28125 -0.8125q0.296875 -0.296875 0.796875 -0.296875q0.515625 0 0.81250095 0.296875q0.3125 0.296875 0.3125 0.8125q0 0.5 -0.3125 0.8125q-0.29687595 0.296875 -0.81250095 0.296875q-0.5 0 -0.796875 -0.296875q-0.28125 -0.3125 -0.28125 -0.8125zm0 7.65625q0 -0.515625 0.28125 -0.796875q0.296875 -0.296875 0.796875 -0.296875q0.515625 0 0.81250095 0.296875q0.3125 0.28125 0.3125 0.796875q0 0.5 -0.3125 0.8125q-0.29687595 0.296875 -0.81250095 0.296875q-0.5 0 -0.796875 -0.296875q-0.28125 -0.3125 -0.28125 -0.8125zm3.1638498 -5.78125q0 -3.40625 1.109375 -5.140625q1.125 -1.734375 3.25 -1.734375q2.296875 0 3.328125 1.703125q1.03125 1.703125 1.03125 5.171875q0 3.421875 -1.109375 5.15625q-1.109375 1.734375 -3.25 1.734375q-2.265625 0 -3.3125 -1.796875q-1.046875 -1.8125 -1.046875 -5.09375zm1.578125 0q0 1.234375 0.15625 2.265625q0.171875 1.015625 0.515625 1.75q0.34375 0.71875 0.859375 1.125q0.53125 0.40625 1.25 0.40625q1.4375 0 2.109375 -1.328125q0.6875 -1.34375 0.6875 -4.21875q0 -1.203125 -0.15625 -2.234375q-0.140625 -1.03125 -0.46875 -1.765625q-0.328125 -0.75 -0.859375 -1.140625q-0.53125 -0.40625 -1.3125 -0.40625q-1.421875 0 -2.109375 1.359375q-0.671875 1.34375 -0.671875 4.1875zm8.589539 0q0 -3.40625 1.109375 -5.140625q1.125 -1.734375 3.25 -1.734375q2.296875 0 3.328125 1.703125q1.03125 1.703125 1.03125 5.171875q0 3.421875 -1.109375 5.15625q-1.109375 1.734375 -3.25 1.734375q-2.265625 0 -3.3125 -1.796875q-1.046875 -1.8125 -1.046875 -5.09375zm1.578125 0q0 1.234375 0.15625 2.265625q0.171875 1.015625 0.515625 1.75q0.34375 0.71875 0.859375 1.125q0.53125 0.40625 1.25 0.40625q1.4375 0 2.109375 -1.328125q0.6875 -1.34375 0.6875 -4.21875q0 -1.203125 -0.15625 -2.234375q-0.140625 -1.03125 -0.46875 -1.765625q-0.328125 -0.75 -0.859375 -1.140625q-0.53125 -0.40625 -1.3125 -0.40625q-1.421875 0 -2.109375 1.359375q-0.671875 1.34375 -0.671875 4.1875z" fill-rule="nonzero"></path><path fill="#000000" fill-opacity="0.0" d="m276.71478 647.55383l70.80316 0l0 36.283447l-70.80316 0z" fill-rule="nonzero"></path><path fill="#000000" d="m287.44916 667.00696q0 -0.515625 0.28125 -0.8125q0.296875 -0.296875 0.796875 -0.296875q0.515625 0 0.8125 0.296875q0.3125 0.296875 0.3125 0.8125q0 0.5 -0.3125 0.8125q-0.296875 0.296875 -0.8125 0.296875q-0.5 0 -0.796875 -0.296875q-0.28125 -0.3125 -0.28125 -0.8125zm0 7.65625q0 -0.515625 0.28125 -0.796875q0.296875 -0.296875 0.796875 -0.296875q0.515625 0 0.8125 0.296875q0.3125 0.28125 0.3125 0.796875q0 0.5 -0.3125 0.8125q-0.296875 0.296875 -0.8125 0.296875q-0.5 0 -0.796875 -0.296875q-0.28125 -0.3125 -0.28125 -0.8125zm4.398224 -0.53125l2.671875 0l0 -9.203125l0.1875 -1.109375l-0.765625 0.890625l-2.09375 1.5l-0.71875 -0.96875l4.1875 -3.234375l0.671875 0l0 12.125l2.609375 0l0 1.40625l-6.75 0l0 -1.40625zm8.933289 -5.25q0 -3.40625 1.109375 -5.140625q1.125 -1.734375 3.25 -1.734375q2.296875 0 3.328125 1.703125q1.03125 1.703125 1.03125 5.171875q0 3.421875 -1.109375 5.15625q-1.109375 1.734375 -3.25 1.734375q-2.265625 0 -3.3125 -1.796875q-1.046875 -1.8125 -1.046875 -5.09375zm1.578125 0q0 1.234375 0.15625 2.265625q0.171875 1.015625 0.515625 1.75q0.34375 0.71875 0.859375 1.125q0.53125 0.40625 1.25 0.40625q1.4375 0 2.109375 -1.328125q0.6875 -1.34375 0.6875 -4.21875q0 -1.203125 -0.15625 -2.234375q-0.140625 -1.03125 -0.46875 -1.765625q-0.328125 -0.75 -0.859375 -1.140625q-0.53125 -0.40625 -1.3125 -0.40625q-1.421875 0 -2.109375 1.359375q-0.671875 1.34375 -0.671875 4.1875z" fill-rule="nonzero"></path><path fill="#000000" fill-opacity="0.0" d="m549.76025 647.55383l70.80316 0l0 36.283447l-70.80316 0z" fill-rule="nonzero"></path><path fill="#000000" d="m560.4946 667.00696q0 -0.515625 0.28125 -0.8125q0.296875 -0.296875 0.796875 -0.296875q0.515625 0 0.8125 0.296875q0.3125 0.296875 0.3125 0.8125q0 0.5 -0.3125 0.8125q-0.296875 0.296875 -0.8125 0.296875q-0.5 0 -0.796875 -0.296875q-0.28125 -0.3125 -0.28125 -0.8125zm0 7.65625q0 -0.515625 0.28125 -0.796875q0.296875 -0.296875 0.796875 -0.296875q0.515625 0 0.8125 0.296875q0.3125 0.28125 0.3125 0.796875q0 0.5 -0.3125 0.8125q-0.296875 0.296875 -0.8125 0.296875q-0.5 0 -0.796875 -0.296875q-0.28125 -0.3125 -0.28125 -0.8125zm10.820129 -9.40625q0 1.015625 -0.375 2.078125q-0.359375 1.046875 -0.96875 2.109375q-0.59375 1.0625 -1.34375 2.078125q-0.734375 1.015625 -1.46875 1.921875l-0.9375 0.828125l0 0.0625l1.21875 -0.203125l4.140625 0l0 1.40625l-7.5625 0l0 -0.546875q0.421875 -0.4375 1.015625 -1.078125q0.59375 -0.65625 1.21875 -1.4375q0.640625 -0.796875 1.25 -1.671875q0.625 -0.890625 1.125 -1.796875q0.5 -0.921875 0.796875 -1.8125q0.3125 -0.890625 0.3125 -1.6875q0 -0.9375 -0.53125 -1.546875q-0.53125 -0.625 -1.609375 -0.625q-0.71875 0 -1.40625 0.296875q-0.6875 0.296875 -1.171875 0.671875l-0.640625 -1.078125q0.671875 -0.5625 1.578125 -0.890625q0.921875 -0.328125 1.96875 -0.328125q0.8125 0 1.4375 0.25q0.625 0.234375 1.0625 0.671875q0.4375 0.4375 0.65625 1.03125q0.234375 0.59375 0.234375 1.296875zm2.5114136 3.625q0 -3.40625 1.109375 -5.140625q1.125 -1.734375 3.25 -1.734375q2.296875 0 3.328125 1.703125q1.03125 1.703125 1.03125 5.171875q0 3.421875 -1.109375 5.15625q-1.109375 1.734375 -3.25 1.734375q-2.265625 0 -3.3125 -1.796875q-1.046875 -1.8125 -1.046875 -5.09375zm1.578125 0q0 1.234375 0.15625 2.265625q0.171875 1.015625 0.515625 1.75q0.34375 0.71875 0.859375 1.125q0.53125 0.40625 1.25 0.40625q1.4375 0 2.109375 -1.328125q0.6875 -1.34375 0.6875 -4.21875q0 -1.203125 -0.15625 -2.234375q-0.140625 -1.03125 -0.46875 -1.765625q-0.328125 -0.75 -0.859375 -1.140625q-0.53125 -0.40625 -1.3125 -0.40625q-1.421875 0 -2.109375 1.359375q-0.671875 1.34375 -0.671875 4.1875z" fill-rule="nonzero"></path><path fill="#000000" fill-opacity="0.0" d="m822.8058 647.55383l70.80316 0l0 36.283447l-70.80316 0z" fill-rule="nonzero"></path><path fill="#000000" d="m833.54016 667.00696q0 -0.515625 0.28125 -0.8125q0.296875 -0.296875 0.796875 -0.296875q0.515625 0 0.8125 0.296875q0.3125 0.296875 0.3125 0.8125q0 0.5 -0.3125 0.8125q-0.296875 0.296875 -0.8125 0.296875q-0.5 0 -0.796875 -0.296875q-0.28125 -0.3125 -0.28125 -0.8125zm0 7.65625q0 -0.515625 0.28125 -0.796875q0.296875 -0.296875 0.796875 -0.296875q0.515625 0 0.8125 0.296875q0.3125 0.28125 0.3125 0.796875q0 0.5 -0.3125 0.8125q-0.296875 0.296875 -0.8125 0.296875q-0.5 0 -0.796875 -0.296875q-0.28125 -0.3125 -0.28125 -0.8125zm6.8044434 -0.234375q0.640625 0 1.1875 -0.1875q0.546875 -0.1875 0.9375 -0.546875q0.40625 -0.375 0.640625 -0.890625q0.234375 -0.515625 0.234375 -1.125q0 -1.328125 -0.796875 -1.96875q-0.78125 -0.65625 -2.171875 -0.65625l-1.40625 0l0 -0.546875l2.734375 -4.21875l0.875 -0.828125l-1.234375 0.1875l-3.765625 0l0 -1.40625l6.78125 0l0 0.546875l-3.015625 4.546875l-0.671875 0.546875l0 0.03125l0.65625 -0.125q0.75 0.015625 1.390625 0.28125q0.65625 0.25 1.125 0.734375q0.484375 0.484375 0.75 1.15625q0.265625 0.671875 0.265625 1.53125q0 1.03125 -0.359375 1.828125q-0.359375 0.796875 -0.984375 1.34375q-0.609375 0.53125 -1.453125 0.828125q-0.828125 0.28125 -1.765625 0.28125q-0.859375 0 -1.546875 -0.140625q-0.671875 -0.125 -1.1875 -0.34375l0.40625 -1.34375q0.4375 0.203125 1.03125 0.34375q0.59375 0.140625 1.34375 0.140625zm6.5270386 -5.546875q0 -3.40625 1.109375 -5.140625q1.125 -1.734375 3.25 -1.734375q2.296875 0 3.328125 1.703125q1.03125 1.703125 1.03125 5.171875q0 3.421875 -1.109375 5.15625q-1.109375 1.734375 -3.25 1.734375q-2.265625 0 -3.3125 -1.796875q-1.046875 -1.8125 -1.046875 -5.09375zm1.578125 0q0 1.234375 0.15625 2.265625q0.171875 1.015625 0.515625 1.75q0.34375 0.71875 0.859375 1.125q0.53125 0.40625 1.25 0.40625q1.4375 0 2.109375 -1.328125q0.6875 -1.34375 0.6875 -4.21875q0 -1.203125 -0.15625 -2.234375q-0.140625 -1.03125 -0.46875 -1.765625q-0.328125 -0.75 -0.859375 -1.140625q-0.53125 -0.40625 -1.3125 -0.40625q-1.421875 0 -2.109375 1.359375q-0.671875 1.34375 -0.671875 4.1875z" fill-rule="nonzero"></path><path fill="#2a7cdf" d="m14.677165 565.6322l132.62991 0l0 70.2677l-132.62991 0z" fill-rule="nonzero"></path><path fill="#2a7cdf" d="m151.42345 565.64307l132.62993 0l0 70.2677l-132.62993 0z" fill-rule="nonzero"></path><path fill="#2a7cdf" d="m288.16974 565.63367l132.62991 0l0 70.26776l-132.62991 0z" fill-rule="nonzero"></path><path fill="#2a7cdf" d="m424.91602 565.64307l132.62994 0l0 70.2677l-132.62994 0z" fill-rule="nonzero"></path><path fill="#000000" fill-opacity="0.0" d="m125.7909 683.8373l384.0 0l0 48.0l-384.0 0z" fill-rule="nonzero"></path><path fill="#000000" d="m142.4784 706.1185l1.640625 0.21875q-0.265625 1.6875 -1.375 2.65625q-1.109375 0.953125 -2.734375 0.953125q-2.015625 0 -3.25 -1.3125q-1.21875 -1.328125 -1.21875 -3.796875q0 -1.59375 0.515625 -2.78125q0.53125 -1.203125 1.609375 -1.796875q1.09375 -0.609375 2.359375 -0.609375q1.609375 0 2.625 0.8125q1.015625 0.8125 1.3125 2.3125l-1.625 0.25q-0.234375 -1.0 -0.828125 -1.5q-0.59375 -0.5 -1.421875 -0.5q-1.265625 0 -2.0625 0.90625q-0.78125 0.90625 -0.78125 2.859375q0 1.984375 0.765625 2.890625q0.765625 0.890625 1.984375 0.890625q0.984375 0 1.640625 -0.59375q0.65625 -0.609375 0.84375 -1.859375zm9.34375 3.609375l0 -1.453125q-1.140625 1.671875 -3.125 1.671875q-0.859375 0 -1.625 -0.328125q-0.75 -0.34375 -1.125 -0.84375q-0.359375 -0.5 -0.515625 -1.234375q-0.09375 -0.5 -0.09375 -1.5625l0 -6.109375l1.671875 0l0 5.46875q0 1.3125 0.09375 1.765625q0.15625 0.65625 0.671875 1.03125q0.515625 0.375 1.265625 0.375q0.75 0 1.40625 -0.375q0.65625 -0.390625 0.921875 -1.046875q0.28125 -0.671875 0.28125 -1.9375l0 -5.28125l1.671875 0l0 9.859375l-1.5 0zm3.9069672 0l0 -9.859375l1.5 0l0 1.5q0.578125 -1.046875 1.0625 -1.375q0.484375 -0.34375 1.078125 -0.34375q0.84375 0 1.71875 0.546875l-0.578125 1.546875q-0.609375 -0.359375 -1.234375 -0.359375q-0.546875 0 -0.984375 0.328125q-0.421875 0.328125 -0.609375 0.90625q-0.28125 0.890625 -0.28125 1.953125l0 5.15625l-1.671875 0zm6.212677 0l0 -9.859375l1.5 0l0 1.5q0.578125 -1.046875 1.0625 -1.375q0.484375 -0.34375 1.078125 -0.34375q0.84375 0 1.71875 0.546875l-0.578125 1.546875q-0.609375 -0.359375 -1.234375 -0.359375q-0.546875 0 -0.984375 0.328125q-0.421875 0.328125 -0.609375 0.90625q-0.28125 0.890625 -0.28125 1.953125l0 5.15625l-1.671875 0zm12.978302 -3.171875l1.71875 0.21875q-0.40625 1.5 -1.515625 2.34375q-1.09375 0.828125 -2.8125 0.828125q-2.15625 0 -3.421875 -1.328125q-1.265625 -1.328125 -1.265625 -3.734375q0 -2.484375 1.265625 -3.859375q1.28125 -1.375 3.328125 -1.375q1.984375 0 3.234375 1.34375q1.25 1.34375 1.25 3.796875q0 0.140625 -0.015625 0.4375l-7.34375 0q0.09375 1.625 0.921875 2.484375q0.828125 0.859375 2.0625 0.859375q0.90625 0 1.546875 -0.46875q0.65625 -0.484375 1.046875 -1.546875zm-5.484375 -2.703125l5.5 0q-0.109375 -1.234375 -0.625 -1.859375q-0.796875 -0.96875 -2.078125 -0.96875q-1.140625 0 -1.9375 0.78125q-0.78125 0.765625 -0.859375 2.046875zm9.110092 5.875l0 -9.859375l1.5 0l0 1.40625q1.09375 -1.625 3.140625 -1.625q0.890625 0 1.640625 0.328125q0.75 0.3125 1.109375 0.84375q0.375 0.515625 0.53125 1.21875q0.09375 0.46875 0.09375 1.625l0 6.0625l-1.671875 0l0 -6.0q0 -1.015625 -0.203125 -1.515625q-0.1875 -0.515625 -0.6875 -0.8125q-0.5 -0.296875 -1.171875 -0.296875q-1.0625 0 -1.84375 0.671875q-0.765625 0.671875 -0.765625 2.578125l0 5.375l-1.671875 0zm14.031967 -1.5l0.234375 1.484375q-0.703125 0.140625 -1.265625 0.140625q-0.90625 0 -1.40625 -0.28125q-0.5 -0.296875 -0.703125 -0.75q-0.203125 -0.46875 -0.203125 -1.984375l0 -5.65625l-1.234375 0l0 -1.3125l1.234375 0l0 -2.4375l1.65625 -1.0l0 3.4375l1.6875 0l0 1.3125l-1.6875 0l0 5.75q0 0.71875 0.078125 0.921875q0.09375 0.203125 0.296875 0.328125q0.203125 0.125 0.578125 0.125q0.265625 0 0.734375 -0.078125zm5.198929 1.5l0 -12.0l-4.46875 0l0 -1.59375l10.765625 0l0 1.59375l-4.5 0l0 12.0l-1.796875 0zm7.739731 -11.6875l0 -1.90625l1.671875 0l0 1.90625l-1.671875 0zm0 11.6875l0 -9.859375l1.671875 0l0 9.859375l-1.671875 0zm4.129196 0l0 -9.859375l1.5 0l0 1.390625q0.453125 -0.71875 1.21875 -1.15625q0.78125 -0.453125 1.765625 -0.453125q1.09375 0 1.796875 0.453125q0.703125 0.453125 0.984375 1.28125q1.171875 -1.734375 3.046875 -1.734375q1.46875 0 2.25 0.8125q0.796875 0.8125 0.796875 2.5l0 6.765625l-1.671875 0l0 -6.203125q0 -1.0 -0.15625 -1.4375q-0.15625 -0.453125 -0.59375 -0.71875q-0.421875 -0.265625 -1.0 -0.265625q-1.03125 0 -1.71875 0.6875q-0.6875 0.6875 -0.6875 2.21875l0 5.71875l-1.671875 0l0 -6.40625q0 -1.109375 -0.40625 -1.65625q-0.40625 -0.5625 -1.34375 -0.5625q-0.703125 0 -1.3125 0.375q-0.59375 0.359375 -0.859375 1.078125q-0.265625 0.71875 -0.265625 2.0625l0 5.109375l-1.671875 0zm22.290802 -3.171875l1.71875 0.21875q-0.40625 1.5 -1.515625 2.34375q-1.09375 0.828125 -2.8125 0.828125q-2.15625 0 -3.421875 -1.328125q-1.265625 -1.328125 -1.265625 -3.734375q0 -2.484375 1.265625 -3.859375q1.28125 -1.375 3.328125 -1.375q1.984375 0 3.234375 1.34375q1.25 1.34375 1.25 3.796875q0 0.140625 -0.015625 0.4375l-7.34375 0q0.09375 1.625 0.921875 2.484375q0.828125 0.859375 2.0625 0.859375q0.90625 0 1.546875 -0.46875q0.65625 -0.484375 1.046875 -1.546875zm-5.484375 -2.703125l5.5 0q-0.109375 -1.234375 -0.625 -1.859375q-0.796875 -0.96875 -2.078125 -0.96875q-1.140625 0 -1.9375 0.78125q-0.78125 0.765625 -0.859375 2.046875z" fill-rule="nonzero"></path><path fill="#009f5d" d="m288.16974 483.70273l132.62991 0l0 70.26773l-132.62991 0z" fill-rule="nonzero"></path><path fill="#009f5d" d="m424.91602 483.71356l132.62994 0l0 70.2677l-132.62994 0z" fill-rule="nonzero"></path><path fill="#009f5d" d="m561.6623 483.70422l132.62994 0l0 70.2677l-132.62994 0z" fill-rule="nonzero"></path><path fill="#009f5d" d="m698.40857 483.71356l132.62994 0l0 70.2677l-132.62994 0z" fill-rule="nonzero"></path><path fill="#000000" fill-opacity="0.0" d="m11.963255 672.5932l384.0 0l0 48.0l-384.0 0z" fill-rule="nonzero"></path><path fill="#000000" fill-opacity="0.0" d="m202.84776 444.1496l0 239.68506" fill-rule="nonzero"></path><path stroke="#d94d3a" stroke-width="4.0" stroke-linejoin="round" stroke-linecap="butt" d="m202.84776 444.1496l0 239.68506" fill-rule="nonzero"></path></g></svg>

