<?xml version="1.0" standalone="yes"?>

<svg version="1.1" viewBox="0.0 0.0 960.0 720.0" fill="none" stroke="none" stroke-linecap="square" stroke-miterlimit="10" xmlns="http://www.w3.org/2000/svg" xmlns:xlink="http://www.w3.org/1999/xlink"><clipPath id="p.0"><path d="m0 0l960.0 0l0 720.0l-960.0 0l0 -720.0z" clip-rule="nonzero"></path></clipPath><g clip-path="url(#p.0)"><path fill="#000000" fill-opacity="0.0" d="m0 0l960.0 0l0 720.0l-960.0 0z" fill-rule="nonzero"></path><path fill="#000000" fill-opacity="0.0" d="m14.677165 647.55383l930.6456 0" fill-rule="nonzero"></path><path stroke="#000000" stroke-width="4.0" stroke-linejoin="round" stroke-linecap="butt" d="m14.677165 647.55383l930.6456 0" fill-rule="nonzero"></path><path fill="#000000" fill-opacity="0.0" d="m3.6692915 647.55383l70.803154 0l0 36.283447l-70.803154 0z" fill-rule="nonzero"></path><path fill="#000000" d="m14.4036665 667.00696q0 -0.515625 0.28125 -0.8125q0.296875 -0.296875 0.796875 -0.296875q0.515625 0 0.81250095 0.296875q0.3125 0.296875 0.3125 0.8125q0 0.5 -0.3125 0.8125q-0.29687595 0.296875 -0.81250095 0.296875q-0.5 0 -0.796875 -0.296875q-0.28125 -0.3125 -0.28125 -0.8125zm0 7.65625q0 -0.515625 0.28125 -0.796875q0.296875 -0.296875 0.796875 -0.296875q0.515625 0 0.81250095 0.296875q0.3125 0.28125 0.3125 0.796875q0 0.5 -0.3125 0.8125q-0.29687595 0.296875 -0.81250095 0.296875q-0.5 0 -0.796875 -0.296875q-0.28125 -0.3125 -0.28125 -0.8125zm3.1638498 -5.78125q0 -3.40625 1.109375 -5.140625q1.125 -1.734375 3.25 -1.734375q2.296875 0 3.328125 1.703125q1.03125 1.703125 1.03125 5.171875q0 3.421875 -1.109375 5.15625q-1.109375 1.734375 -3.25 1.734375q-2.265625 0 -3.3125 -1.796875q-1.046875 -1.8125 -1.046875 -5.09375zm1.578125 0q0 1.234375 0.15625 2.265625q0.171875 1.015625 0.515625 1.75q0.34375 0.71875 0.859375 1.125q0.53125 0.40625 1.25 0.40625q1.4375 0 2.109375 -1.328125q0.6875 -1.34375 0.6875 -4.21875q0 -1.203125 -0.15625 -2.234375q-0.140625 -1.03125 -0.46875 -1.765625q-0.328125 -0.75 -0.859375 -1.140625q-0.53125 -0.40625 -1.3125 -0.40625q-1.421875 0 -2.109375 1.359375q-0.671875 1.34375 -0.671875 4.1875zm8.589539 0q0 -3.40625 1.109375 -5.140625q1.125 -1.734375 3.25 -1.734375q2.296875 0 3.328125 1.703125q1.03125 1.703125 1.03125 5.171875q0 3.421875 -1.109375 5.15625q-1.109375 1.734375 -3.25 1.734375q-2.265625 0 -3.3125 -1.796875q-1.046875 -1.8125 -1.046875 -5.09375zm1.578125 0q0 1.234375 0.15625 2.265625q0.171875 1.015625 0.515625 1.75q0.34375 0.71875 0.859375 1.125q0.53125 0.40625 1.25 0.40625q1.4375 0 2.109375 -1.328125q0.6875 -1.34375 0.6875 -4.21875q0 -1.203125 -0.15625 -2.234375q-0.140625 -1.03125 -0.46875 -1.765625q-0.328125 -0.75 -0.859375 -1.140625q-0.53125 -0.40625 -1.3125 -0.40625q-1.421875 0 -2.109375 1.359375q-0.671875 1.34375 -0.671875 4.1875z" fill-rule="nonzero"></path><path fill="#000000" fill-opacity="0.0" d="m276.71478 647.55383l70.80316 0l0 36.283447l-70.80316 0z" fill-rule="nonzero"></path><path fill="#000000" d="m287.44916 667.00696q0 -0.515625 0.28125 -0.8125q0.296875 -0.296875 0.796875 -0.296875q0.515625 0 0.8125 0.296875q0.3125 0.296875 0.3125 0.8125q0 0.5 -0.3125 0.8125q-0.296875 0.296875 -0.8125 0.296875q-0.5 0 -0.796875 -0.296875q-0.28125 -0.3125 -0.28125 -0.8125zm0 7.65625q0 -0.515625 0.28125 -0.796875q0.296875 -0.296875 0.796875 -0.296875q0.515625 0 0.8125 0.296875q0.3125 0.28125 0.3125 0.796875q0 0.5 -0.3125 0.8125q-0.296875 0.296875 -0.8125 0.296875q-0.5 0 -0.796875 -0.296875q-0.28125 -0.3125 -0.28125 -0.8125zm4.398224 -0.53125l2.671875 0l0 -9.203125l0.1875 -1.109375l-0.765625 0.890625l-2.09375 1.5l-0.71875 -0.96875l4.1875 -3.234375l0.671875 0l0 12.125l2.609375 0l0 1.40625l-6.75 0l0 -1.40625zm8.933289 -5.25q0 -3.40625 1.109375 -5.140625q1.125 -1.734375 3.25 -1.734375q2.296875 0 3.328125 1.703125q1.03125 1.703125 1.03125 5.171875q0 3.421875 -1.109375 5.15625q-1.109375 1.734375 -3.25 1.734375q-2.265625 0 -3.3125 -1.796875q-1.046875 -1.8125 -1.046875 -5.09375zm1.578125 0q0 1.234375 0.15625 2.265625q0.171875 1.015625 0.515625 1.75q0.34375 0.71875 0.859375 1.125q0.53125 0.40625 1.25 0.40625q1.4375 0 2.109375 -1.328125q0.6875 -1.34375 0.6875 -4.21875q0 -1.203125 -0.15625 -2.234375q-0.140625 -1.03125 -0.46875 -1.765625q-0.328125 -0.75 -0.859375 -1.140625q-0.53125 -0.40625 -1.3125 -0.40625q-1.421875 0 -2.109375 1.359375q-0.671875 1.34375 -0.671875 4.1875z" fill-rule="nonzero"></path><path fill="#000000" fill-opacity="0.0" d="m549.76025 647.55383l70.80316 0l0 36.283447l-70.80316 0z" fill-rule="nonzero"></path><path fill="#000000" d="m560.4946 667.00696q0 -0.515625 0.28125 -0.8125q0.296875 -0.296875 0.796875 -0.296875q0.515625 0 0.8125 0.296875q0.3125 0.296875 0.3125 0.8125q0 0.5 -0.3125 0.8125q-0.296875 0.296875 -0.8125 0.296875q-0.5 0 -0.796875 -0.296875q-0.28125 -0.3125 -0.28125 -0.8125zm0 7.65625q0 -0.515625 0.28125 -0.796875q0.296875 -0.296875 0.796875 -0.296875q0.515625 0 0.8125 0.296875q0.3125 0.28125 0.3125 0.796875q0 0.5 -0.3125 0.8125q-0.296875 0.296875 -0.8125 0.296875q-0.5 0 -0.796875 -0.296875q-0.28125 -0.3125 -0.28125 -0.8125zm10.820129 -9.40625q0 1.015625 -0.375 2.078125q-0.359375 1.046875 -0.96875 2.109375q-0.59375 1.0625 -1.34375 2.078125q-0.734375 1.015625 -1.46875 1.921875l-0.9375 0.828125l0 0.0625l1.21875 -0.203125l4.140625 0l0 1.40625l-7.5625 0l0 -0.546875q0.421875 -0.4375 1.015625 -1.078125q0.59375 -0.65625 1.21875 -1.4375q0.640625 -0.796875 1.25 -1.671875q0.625 -0.890625 1.125 -1.796875q0.5 -0.921875 0.796875 -1.8125q0.3125 -0.890625 0.3125 -1.6875q0 -0.9375 -0.53125 -1.546875q-0.53125 -0.625 -1.609375 -0.625q-0.71875 0 -1.40625 0.296875q-0.6875 0.296875 -1.171875 0.671875l-0.640625 -1.078125q0.671875 -0.5625 1.578125 -0.890625q0.921875 -0.328125 1.96875 -0.328125q0.8125 0 1.4375 0.25q0.625 0.234375 1.0625 0.671875q0.4375 0.4375 0.65625 1.03125q0.234375 0.59375 0.234375 1.296875zm2.5114136 3.625q0 -3.40625 1.109375 -5.140625q1.125 -1.734375 3.25 -1.734375q2.296875 0 3.328125 1.703125q1.03125 1.703125 1.03125 5.171875q0 3.421875 -1.109375 5.15625q-1.109375 1.734375 -3.25 1.734375q-2.265625 0 -3.3125 -1.796875q-1.046875 -1.8125 -1.046875 -5.09375zm1.578125 0q0 1.234375 0.15625 2.265625q0.171875 1.015625 0.515625 1.75q0.34375 0.71875 0.859375 1.125q0.53125 0.40625 1.25 0.40625q1.4375 0 2.109375 -1.328125q0.6875 -1.34375 0.6875 -4.21875q0 -1.203125 -0.15625 -2.234375q-0.140625 -1.03125 -0.46875 -1.765625q-0.328125 -0.75 -0.859375 -1.140625q-0.53125 -0.40625 -1.3125 -0.40625q-1.421875 0 -2.109375 1.359375q-0.671875 1.34375 -0.671875 4.1875z" fill-rule="nonzero"></path><path fill="#000000" fill-opacity="0.0" d="m822.8058 647.55383l70.80316 0l0 36.283447l-70.80316 0z" fill-rule="nonzero"></path><path fill="#000000" d="m833.54016 667.00696q0 -0.515625 0.28125 -0.8125q0.296875 -0.296875 0.796875 -0.296875q0.515625 0 0.8125 0.296875q0.3125 0.296875 0.3125 0.8125q0 0.5 -0.3125 0.8125q-0.296875 0.296875 -0.8125 0.296875q-0.5 0 -0.796875 -0.296875q-0.28125 -0.3125 -0.28125 -0.8125zm0 7.65625q0 -0.515625 0.28125 -0.796875q0.296875 -0.296875 0.796875 -0.296875q0.515625 0 0.8125 0.296875q0.3125 0.28125 0.3125 0.796875q0 0.5 -0.3125 0.8125q-0.296875 0.296875 -0.8125 0.296875q-0.5 0 -0.796875 -0.296875q-0.28125 -0.3125 -0.28125 -0.8125zm6.8044434 -0.234375q0.640625 0 1.1875 -0.1875q0.546875 -0.1875 0.9375 -0.546875q0.40625 -0.375 0.640625 -0.890625q0.234375 -0.515625 0.234375 -1.125q0 -1.328125 -0.796875 -1.96875q-0.78125 -0.65625 -2.171875 -0.65625l-1.40625 0l0 -0.546875l2.734375 -4.21875l0.875 -0.828125l-1.234375 0.1875l-3.765625 0l0 -1.40625l6.78125 0l0 0.546875l-3.015625 4.546875l-0.671875 0.546875l0 0.03125l0.65625 -0.125q0.75 0.015625 1.390625 0.28125q0.65625 0.25 1.125 0.734375q0.484375 0.484375 0.75 1.15625q0.265625 0.671875 0.265625 1.53125q0 1.03125 -0.359375 1.828125q-0.359375 0.796875 -0.984375 1.34375q-0.609375 0.53125 -1.453125 0.828125q-0.828125 0.28125 -1.765625 0.28125q-0.859375 0 -1.546875 -0.140625q-0.671875 -0.125 -1.1875 -0.34375l0.40625 -1.34375q0.4375 0.203125 1.03125 0.34375q0.59375 0.140625 1.34375 0.140625zm6.5270386 -5.546875q0 -3.40625 1.109375 -5.140625q1.125 -1.734375 3.25 -1.734375q2.296875 0 3.328125 1.703125q1.03125 1.703125 1.03125 5.171875q0 3.421875 -1.109375 5.15625q-1.109375 1.734375 -3.25 1.734375q-2.265625 0 -3.3125 -1.796875q-1.046875 -1.8125 -1.046875 -5.09375zm1.578125 0q0 1.234375 0.15625 2.265625q0.171875 1.015625 0.515625 1.75q0.34375 0.71875 0.859375 1.125q0.53125 0.40625 1.25 0.40625q1.4375 0 2.109375 -1.328125q0.6875 -1.34375 0.6875 -4.21875q0 -1.203125 -0.15625 -2.234375q-0.140625 -1.03125 -0.46875 -1.765625q-0.328125 -0.75 -0.859375 -1.140625q-0.53125 -0.40625 -1.3125 -0.40625q-1.421875 0 -2.109375 1.359375q-0.671875 1.34375 -0.671875 4.1875z" fill-rule="nonzero"></path><path fill="#009f5d" d="m14.677165 565.6322l132.62991 0l0 70.2677l-132.62991 0z" fill-rule="nonzero"></path></g></svg>

